<svg id="Layer_1" data-name="Layer 1" xmlns="http://www.w3.org/2000/svg" xmlns:xlink="http://www.w3.org/1999/xlink" viewBox="0 0 517.5 496.28"><defs><style>.cls-1{fill:#5ca0c2;}.cls-2{fill:url(#linear-gradient);}.cls-3{fill:url(#linear-gradient-2);}.cls-4{font-size:49.96px;font-family:Audiowide-Regular, Audiowide;}.cls-4,.cls-8{fill:#1e2d49;}.cls-5{letter-spacing:-0.01em;}.cls-6{letter-spacing:-0.01em;}.cls-7{letter-spacing:0em;}.cls-8{font-size:20px;font-family:Gotham-Book, Gotham;letter-spacing:0.09em;}.cls-9{letter-spacing:0.15em;}.cls-10{letter-spacing:0.13em;}.cls-11{letter-spacing:0.15em;}</style><linearGradient id="linear-gradient" x1="263.61" y1="60.98" x2="481.71" y2="60.98" gradientUnits="userSpaceOnUse"><stop offset="0" stop-color="#5ca0c2"/><stop offset="0.22" stop-color="#5a9dbf"/><stop offset="0.4" stop-color="#5594b5"/><stop offset="0.56" stop-color="#4d84a4"/><stop offset="0.71" stop-color="#416d8c"/><stop offset="0.86" stop-color="#31506e"/><stop offset="1" stop-color="#1e2d49"/><stop offset="1" stop-color="#1e2d49"/></linearGradient><linearGradient id="linear-gradient-2" x1="36" y1="191.44" x2="481.71" y2="191.44" xlink:href="#linear-gradient"/></defs><title>codeexperts logo without background(final)</title><polygon class="cls-1" points="319.2 158.5 258 223.92 481.71 223.92 481.71 157.79 319.2 158.5"/><polygon class="cls-2" points="337.79 28.23 282.99 28.23 263.61 28.23 326.34 93.73 330.42 93.73 481.71 93.73 481.71 28.36 337.79 28.23"/><path class="cls-3" d="M383.05,289H237.73c-73,2.8-104.22-27.23-118.28-55S103,152,138,121.66s70.44-27.93,70.44-27.93h64.38L208.4,28.24H170.89s-48.54-4-96.38,46.66S30,216.06,49.19,262.49s61.9,96.61,161.8,91.92h198.8c.86,0,71.07.07,71.92.1V288.24C472.77,289.11,393.68,289.42,383.05,289Z"/><text class="cls-4" transform="translate(35.85 441.45)"><tspan class="cls-5">C</tspan><tspan x="36.81" y="0">ODE EXPE</tspan><tspan class="cls-6" x="330.02" y="0">R</tspan><tspan x="371.08" y="0">T</tspan><tspan class="cls-7" x="407.35" y="0">S</tspan></text><text class="cls-8" transform="translate(113.56 467.3)">Y<tspan class="cls-9" x="16.1" y="0">OUR NEXT SO</tspan><tspan class="cls-10" x="193.98" y="0">L</tspan><tspan class="cls-11" x="208.94" y="0">UTION</tspan></text></svg>