<?xml version="1.0" encoding="utf-8"?>
<!-- Generator: Adobe Illustrator 24.0.2, SVG Export Plug-In . SVG Version: 6.00 Build 0)  -->
<svg version="1.1" id="Layer_1" xmlns="http://www.w3.org/2000/svg" xmlns:xlink="http://www.w3.org/1999/xlink" x="0px" y="0px"
	 viewBox="0 0 810 599.3" style="enable-background:new 0 0 810 599.3;" xml:space="preserve">
<style type="text/css">
	.st0{fill:url(#SVGID_1_);}
	.st1{opacity:0.38;fill:url(#SVGID_2_);enable-background:new    ;}
	.st2{opacity:0.2;fill:url(#SVGID_3_);enable-background:new    ;}
	.st3{fill:url(#SVGID_4_);}
	.st4{fill:url(#SVGID_5_);}
	.st5{fill:url(#SVGID_6_);}
	.st6{fill:url(#SVGID_7_);}
	.st7{clip-path:url(#SVGID_9_);}
	.st8{fill:url(#SVGID_10_);}
	.st9{fill:url(#SVGID_11_);}
	.st10{opacity:0.4;fill:url(#SVGID_12_);enable-background:new    ;}
	.st11{opacity:0.4;fill:url(#SVGID_13_);enable-background:new    ;}
	.st12{opacity:0.49;}
	.st13{fill:#8396CC;}
	.st14{opacity:0.43;}
	.st15{opacity:0.19;fill:#2E293F;enable-background:new    ;}
	.st16{fill:url(#SVGID_14_);}
	.st17{opacity:0.28;fill:#EAEAE9;enable-background:new    ;}
	.st18{opacity:0.42;fill:#8396CC;enable-background:new    ;}
	.st19{fill:url(#SVGID_15_);}
	.st20{fill:url(#SVGID_16_);}
	.st21{fill:#FFFFFF;}
	.st22{fill:#F7F9FB;}
	.st23{opacity:0.29;}
	.st24{clip-path:url(#SVGID_18_);fill:#F7F9FB;}
	.st25{clip-path:url(#SVGID_18_);}
	.st26{opacity:0.16;}
	.st27{fill:url(#SVGID_19_);}
	.st28{opacity:0.38;}
	.st29{fill:url(#SVGID_20_);}
</style>
<linearGradient id="SVGID_1_" gradientUnits="userSpaceOnUse" x1="400.6248" y1="573.9013" x2="409.0016" y2="49.9085" gradientTransform="matrix(1 0 0 -1 0 599.89)">
	<stop  offset="0" style="stop-color:#5F9FC1"/>
	<stop  offset="6.000000e-02" style="stop-color:#5085A5"/>
	<stop  offset="0.14" style="stop-color:#416A89"/>
	<stop  offset="0.23" style="stop-color:#355472"/>
	<stop  offset="0.34" style="stop-color:#2C4360"/>
	<stop  offset="0.46" style="stop-color:#253753"/>
	<stop  offset="0.62" style="stop-color:#21304C"/>
	<stop  offset="1" style="stop-color:#202E4A"/>
</linearGradient>
<rect y="0" class="st0" width="810" height="599.3"/>
<linearGradient id="SVGID_2_" gradientUnits="userSpaceOnUse" x1="387.6447" y1="-47.6136" x2="403.6039" y2="179.7626" gradientTransform="matrix(1 0 0 -1 0 599.89)">
	<stop  offset="0" style="stop-color:#FFFFFF;stop-opacity:0"/>
	<stop  offset="1" style="stop-color:#FFFFFF"/>
</linearGradient>
<polygon class="st1" points="370,283.4 360.4,639.8 431.4,639.8 420.2,280.8 "/>
<g>
	
		<image style="overflow:visible;opacity:0.25;enable-background:new    ;" width="700" height="1327" xlink:href="6919A5C6.png"  transform="matrix(0.355 0 0 0.355 278.196 1.6387)">
	</image>
	
		<linearGradient id="SVGID_3_" gradientUnits="userSpaceOnUse" x1="405.4707" y1="480.4317" x2="387.868" y2="170.5956" gradientTransform="matrix(1 0 0 -1 0 599.89)">
		<stop  offset="0.1" style="stop-color:#FCDF3B"/>
		<stop  offset="1" style="stop-color:#F16576"/>
	</linearGradient>
	<path class="st2" d="M354.2,331.6c0,0-4.9,103.3,45.3,108.5c0,0,30.9-13.8,33.1-111.9L354.2,331.6z"/>
	
		<linearGradient id="SVGID_4_" gradientUnits="userSpaceOnUse" x1="373.6343" y1="390.466" x2="399.9643" y2="214.9573" gradientTransform="matrix(1 0 0 -1 0 599.89)">
		<stop  offset="0.1" style="stop-color:#FCDF3B"/>
		<stop  offset="1" style="stop-color:#F16576"/>
	</linearGradient>
	<path class="st3" d="M365.3,331.6c0,0,5.8,72.2,28.1,85c0,0,17.1-11.3,25.8-85H365.3z"/>
	
		<linearGradient id="SVGID_5_" gradientUnits="userSpaceOnUse" x1="290.3205" y1="317.2181" x2="346.2547" y2="317.2181" gradientTransform="matrix(1 0 0 -1 0 599.89)">
		<stop  offset="0" style="stop-color:#5F9FC1"/>
		<stop  offset="0.22" style="stop-color:#5D9CBE"/>
		<stop  offset="0.4" style="stop-color:#5893B4"/>
		<stop  offset="0.57" style="stop-color:#4F83A3"/>
		<stop  offset="0.72" style="stop-color:#436C8B"/>
		<stop  offset="0.87" style="stop-color:#334F6D"/>
		<stop  offset="1" style="stop-color:#202E4A"/>
	</linearGradient>
	<path class="st4" d="M326.8,180c0,0-36,86.3-36.5,108c-0.5,21.7,30.1,109.8,35.5,95.8c5.4-14-6.6-56.3,20.4-74.3l-12.4-61.3
		c-2.6-10.6-4.2-21.5-4.9-32.4C328.2,205.4,327.4,191.9,326.8,180z"/>
	
		<linearGradient id="SVGID_6_" gradientUnits="userSpaceOnUse" x1="435.9542" y1="321.6536" x2="493.9001" y2="321.6536" gradientTransform="matrix(1 0 0 -1 0 599.89)">
		<stop  offset="0" style="stop-color:#5F9FC1"/>
		<stop  offset="0.22" style="stop-color:#5D9CBE"/>
		<stop  offset="0.4" style="stop-color:#5893B4"/>
		<stop  offset="0.57" style="stop-color:#4F83A3"/>
		<stop  offset="0.72" style="stop-color:#436C8B"/>
		<stop  offset="0.87" style="stop-color:#334F6D"/>
		<stop  offset="1" style="stop-color:#202E4A"/>
	</linearGradient>
	<path class="st5" d="M457.4,175.6c0,0,36,86.3,36.5,108.1s-30.1,109.8-35.5,95.8c-5.4-14,4.5-54.1-22.4-72.1l14.4-63.6
		c2.6-10.6,4.2-21.5,4.9-32.4C456,200.9,456.8,187.4,457.4,175.6z"/>
	
		<linearGradient id="SVGID_7_" gradientUnits="userSpaceOnUse" x1="393.0594" y1="320.7955" x2="375.3975" y2="2127.655" gradientTransform="matrix(1 0 0 -1 0 599.89)">
		<stop  offset="0" style="stop-color:#39355A"/>
		<stop  offset="1" style="stop-color:#4C659A"/>
	</linearGradient>
	<path class="st6" d="M379.6,34.8c-21.2,21.2-57.9,73.4-54.4,179.9c0.2,6.9,1.1,13.7,2.8,20.3l23.3,96.6h80.2
		c0,0,20.5-79.5,24.8-99.8c10.9-51.8-4.6-149-46.2-196.3c-7.4-8.6-20.4-9.5-29-2.1C380.5,33.9,380,34.3,379.6,34.8z"/>
	<g>
		<defs>
			<path id="SVGID_8_" d="M379.6,34.8c-21.2,21.2-57.9,73.4-54.4,179.9c0.2,6.9,1.1,13.7,2.8,20.3l23.3,96.6h80.2
				c0,0,20.5-79.5,24.8-99.8c10.9-51.8-4.6-149-46.2-196.3c-7.4-8.6-20.4-9.5-29-2.1C380.5,33.9,380,34.3,379.6,34.8z"/>
		</defs>
		<clipPath id="SVGID_9_">
			<use xlink:href="#SVGID_8_"  style="overflow:visible;"/>
		</clipPath>
		<g class="st7">
			
				<linearGradient id="SVGID_10_" gradientUnits="userSpaceOnUse" x1="393.0594" y1="320.7955" x2="375.3975" y2="2127.655" gradientTransform="matrix(1 0 0 -1 0 599.89)">
				<stop  offset="0" style="stop-color:#0C1238"/>
				<stop  offset="1" style="stop-color:#4C659A"/>
			</linearGradient>
			<path class="st8" d="M379.6,34.8c-21.2,21.2-57.9,73.4-54.4,179.9c0.2,6.9,1.1,13.7,2.8,20.3l23.3,96.6h80.2
				c0,0,20.5-79.5,24.8-99.8c10.9-51.8-4.6-149-46.2-196.3c-7.4-8.6-20.4-9.5-29-2.1C380.5,33.9,380,34.3,379.6,34.8z"/>
			
				<linearGradient id="SVGID_11_" gradientUnits="userSpaceOnUse" x1="388.8856" y1="320.9283" x2="371.2386" y2="2126.5159" gradientTransform="matrix(1 0 0 -1 0 599.89)">
				<stop  offset="0" style="stop-color:#39355A"/>
				<stop  offset="1" style="stop-color:#4C659A"/>
			</linearGradient>
			<polygon class="st9" points="356.4,65.2 429.8,65.2 434.6,18.1 374.3,13.6 338.1,25.3 			"/>
			
				<linearGradient id="SVGID_12_" gradientUnits="userSpaceOnUse" x1="370.3449" y1="320.5433" x2="352.6831" y2="2127.6396" gradientTransform="matrix(1 0 0 -1 0 599.89)">
				<stop  offset="0" style="stop-color:#39355A"/>
				<stop  offset="1" style="stop-color:#4C659A"/>
			</linearGradient>
			<path class="st10" d="M389.5,213.2c-7.3,50-19.1,91.4-38.5,118.4h32.5L389.5,213.2z"/>
			
				<linearGradient id="SVGID_13_" gradientUnits="userSpaceOnUse" x1="435.9355" y1="321.2241" x2="418.2737" y2="2128.4238" gradientTransform="matrix(1 0 0 -1 0 599.89)">
				<stop  offset="0" style="stop-color:#39355A"/>
				<stop  offset="1" style="stop-color:#4C659A"/>
			</linearGradient>
			<path class="st11" d="M454.9,142.8c0,0-6.4,149.1-43.5,188.8h20.1C431.4,331.6,474.9,210,454.9,142.8z"/>
		</g>
	</g>
	<g class="st12">
		<path class="st13" d="M457.2,155.6c0,0.5-7.4,0.3-19.1,0c-11.7-0.3-28-0.8-45.9-0.8c-17.9,0-34.2,0.4-45.9,0.7s-19,0.5-19.1,0
			s7.2-1.5,19-2.5c11.8-1.1,28-1.8,46-1.8c18,0,34.3,0.9,46,1.9C450.1,154,457.3,155.1,457.2,155.6z"/>
	</g>
	<g class="st12">
		<path class="st13" d="M459.6,166.9c0,0.5-7.5,0.1-19.6-0.5s-28.7-1.7-47.1-2.4c-18.4-0.7-35.1-1.1-47.1-1.3
			c-12.1-0.3-19.5-0.5-19.6-1c0-0.5,7.4-1.2,19.5-1.6s28.8-0.5,47.3,0.2c18.5,0.7,35.1,2.1,47.1,3.4S459.6,166.5,459.6,166.9z"/>
	</g>
	<g class="st14">
		<path class="st13" d="M435,327.7c0,1-19,1.5-42.5,1.2c-23.5-0.3-42.5-1.5-42.4-2.5c0-1,19-1.5,42.5-1.2
			C416,325.5,435,326.7,435,327.7z"/>
	</g>
	<g class="st14">
		<path class="st13" d="M433.8,319.6c0,1-19.5,1.7-43.5,1.6c-24-0.1-43.5-1-43.5-2c0-1,19.5-1.7,43.5-1.6
			C414.3,317.7,433.8,318.6,433.8,319.6z"/>
	</g>
	<path class="st15" d="M421.1,166.7c-1.6,17-15.7,29.3-31.5,27.6s-27.2-16.9-25.6-33.8s15.7-29.3,31.5-27.6S422.8,149.7,421.1,166.7
		z"/>
	
		<linearGradient id="SVGID_14_" gradientUnits="userSpaceOnUse" x1="391.8659" y1="391.8718" x2="396.8805" y2="479.101" gradientTransform="matrix(1 0 0 -1 0 599.89)">
		<stop  offset="0" style="stop-color:#D1E5F6"/>
		<stop  offset="1" style="stop-color:#77A7D9"/>
	</linearGradient>
	<path class="st16" d="M423.2,161.6c-1.6,17-15.7,29.3-31.5,27.6c-15.8-1.7-27.2-16.9-25.6-33.9s15.7-29.3,31.5-27.6
		C413.4,129.5,424.9,144.7,423.2,161.6z"/>
	<path class="st17" d="M370.3,174.7l40.1-42.1c0,0,7.8,6.3,9.8,11.6L378,183.5C378,183.5,370.9,179,370.3,174.7z"/>
	<polygon class="st17" points="384.5,187.4 421.4,147.3 423,153.1 390,189 	"/>
	<path class="st18" d="M354.4,210.7c-0.1,1.2-1.1,2.1-2.3,2c-1.2-0.1-2.1-1.1-2-2.3c0.1-1.1,1-2,2.1-2
		C353.5,208.4,354.5,209.5,354.4,210.7z"/>
	<path class="st18" d="M354.4,217.5c-0.1,1.2-1.1,2.1-2.3,2c-1.2-0.1-2.1-1.1-2-2.3c0.1-1.1,1-2,2.1-2
		C353.5,215.3,354.5,216.3,354.4,217.5z"/>
	<path class="st18" d="M354.4,225c-0.1,1.2-1.1,2.1-2.3,2c-1.2-0.1-2.1-1.1-2-2.3c0.1-1.1,1-2,2.1-2
		C353.5,222.8,354.5,223.8,354.4,225z"/>
	
		<linearGradient id="SVGID_15_" gradientUnits="userSpaceOnUse" x1="393.0998" y1="203.5675" x2="393.0998" y2="364.8757" gradientTransform="matrix(1 0 0 -1 0 599.89)">
		<stop  offset="0" style="stop-color:#5F9FC1"/>
		<stop  offset="0.22" style="stop-color:#5D9CBE"/>
		<stop  offset="0.4" style="stop-color:#5893B4"/>
		<stop  offset="0.57" style="stop-color:#4F83A3"/>
		<stop  offset="0.72" style="stop-color:#436C8B"/>
		<stop  offset="0.87" style="stop-color:#334F6D"/>
		<stop  offset="1" style="stop-color:#202E4A"/>
	</linearGradient>
	<path class="st19" d="M393.6,210.9c0,0-11.7,1.9-11.7,61.9c0,73,3.6,111.4,9.4,110.8C397.2,383.1,416.1,207.5,393.6,210.9z"/>
	
		<linearGradient id="SVGID_16_" gradientUnits="userSpaceOnUse" x1="346.8168" y1="538.4871" x2="438.4097" y2="538.4871" gradientTransform="matrix(1 0 0 -1 0 599.89)">
		<stop  offset="0" style="stop-color:#5F9FC1"/>
		<stop  offset="0.22" style="stop-color:#5D9CBE"/>
		<stop  offset="0.4" style="stop-color:#5893B4"/>
		<stop  offset="0.57" style="stop-color:#4F83A3"/>
		<stop  offset="0.72" style="stop-color:#436C8B"/>
		<stop  offset="0.87" style="stop-color:#334F6D"/>
		<stop  offset="1" style="stop-color:#202E4A"/>
	</linearGradient>
	<path class="st20" d="M346.8,83.9c0,0,45.2,24.2,91.6,0c0,0-18-60.9-45.9-55.5C364.7,33.9,346.8,83.9,346.8,83.9z"/>
</g>
<path class="st21" d="M106.4,165.3l-40.3-28.7l43.2-23.2L106.4,165.3z M71.7,137l32.1,22.9l2.3-41.4L71.7,137z"/>
<path class="st22" d="M655.7,172.4l22.1-46.2l26.2,43.7L655.7,172.4z M678,132.3l-17.6,36.9l38.4-2L678,132.3z"/>
<path class="st22" d="M344.2,51.5V32.2l15.5,9.7L344.2,51.5z M345.7,34.8v14.1l11.3-7L345.7,34.8z"/>
<g class="st23">
	<path class="st22" d="M454.2,87.9l-19.1-9.8l17.4-12.9L454.2,87.9z M440.7,77.7l10.3,5.3l-0.9-12.3L440.7,77.7z"/>
</g>
<polygon class="st22" points="334,443.3 326.7,439.5 319.3,435.7 326,430.8 332.7,425.8 333.4,434.5 "/>
<g class="st23">
	<path class="st22" d="M277.8,355.6l-25.7-30.4l37.3-8.7L277.8,355.6z M257.5,327l19.1,22.6l8.7-29.1L257.5,327z"/>
</g>
<path class="st22" d="M609.4,343.1l3.7-55.3l42.6,31.1L609.4,343.1z M615.6,293.3l-3,44.8l37.5-19.6L615.6,293.3z"/>
<path class="st22" d="M270.8,228l-8.3,8.9c-0.3,0.3-0.8,0.4-1.1,0.1c0,0,0,0-0.1-0.1l-1.6-1.7c-0.3-0.4-0.3-0.9,0-1.3l8.3-8.9
	c0.3-0.3,0.8-0.4,1.1-0.1c0,0,0,0,0.1,0.1l1.6,1.7C271.1,227.1,271.1,227.6,270.8,228z"/>
<path class="st22" d="M508.2,21.7l-8.3,8.9c-0.3,0.3-0.8,0.4-1.1,0.1c0,0,0,0-0.1-0.1l-1.6-1.7c-0.3-0.4-0.3-0.9,0-1.3l8.3-8.9
	c0.3-0.3,0.8-0.4,1.1-0.1c0,0,0,0,0.1,0.1l1.6,1.7C508.5,20.9,508.5,21.4,508.2,21.7z"/>
<path class="st22" d="M257.2,35.3l5.1,11.3c0.2,0.4,0,1-0.4,1.2l-2,1.1c-0.4,0.2-0.9,0-1.1-0.4c0,0,0,0,0-0.1l-5.1-11.3
	c-0.2-0.4,0-1,0.4-1.2l2-1C256.5,34.7,257,34.8,257.2,35.3C257.2,35.2,257.2,35.2,257.2,35.3z"/>
<path class="st22" d="M350.1,99.9l5.1,11.3c0.2,0.4,0,1-0.4,1.2l-2,1.1c-0.4,0.2-0.9,0.1-1.1-0.3c0,0,0,0,0-0.1l-5.1-11.3
	c-0.2-0.4,0-1,0.4-1.2l2-1C349.4,99.4,349.9,99.5,350.1,99.9C350.1,99.9,350.1,99.9,350.1,99.9z"/>
<path class="st22" d="M250.8,402l5.1,11.3c0.2,0.4,0,1-0.4,1.2l-2,1c-0.4,0.2-0.9,0.1-1.1-0.3c0,0,0,0,0-0.1l-5.1-11.3
	c-0.2-0.4,0-1,0.4-1.2l2-1c0.4-0.2,0.9-0.1,1.1,0.3C250.8,401.9,250.8,402,250.8,402z"/>
<path class="st22" d="M512,135.4l10.7-5c0.4-0.2,0.9,0,1.1,0.4c0,0,0,0,0,0.1l0.9,2.2c0.2,0.4,0,1-0.4,1.2l-10.7,5
	c-0.4,0.2-0.9,0-1.1-0.4c0,0,0,0,0-0.1l-0.9-2.2C511.4,136.2,511.5,135.7,512,135.4z"/>
<path class="st22" d="M540,320.4l-7.3-9.9c-0.3-0.4-0.2-0.9,0.1-1.3l1.8-1.5c0.3-0.3,0.8-0.3,1.1,0.1c0,0,0,0.1,0.1,0.1l7.3,9.8
	c0.3,0.4,0.2,0.9-0.1,1.3l-1.8,1.5C540.8,320.8,540.3,320.7,540,320.4C540,320.4,540,320.4,540,320.4z"/>
<g>
	<defs>
		<rect id="SVGID_17_" y="-7.1" width="810" height="609.2"/>
	</defs>
	<clipPath id="SVGID_18_">
		<use xlink:href="#SVGID_17_"  style="overflow:visible;"/>
	</clipPath>
	<path class="st24" d="M545.2,93.1l-10.1-65.8l62.1,24.2L545.2,93.1z M537,29.6l9.3,60.6l47.9-38.3L537,29.6z"/>
	<g class="st25">
		<g class="st26">
			
				<linearGradient id="SVGID_19_" gradientUnits="userSpaceOnUse" x1="177.9493" y1="-22.0915" x2="189.2017" y2="551.6688" gradientTransform="matrix(1 0 0 -1 0 599.89)">
				<stop  offset="0" style="stop-color:#FFFFFF;stop-opacity:0"/>
				<stop  offset="1" style="stop-color:#FFFFFF"/>
			</linearGradient>
			<path class="st27" d="M-124.6,268.7c19.9-23.9,59.2-40,100.1-41.2c40.9-1.1,82,12.8,104.8,35.5c27.8,27.7,35.2,69.9,82.9,79.9
				c29.7,6.2,62.4-4.2,92.8,0.4c65.5,9.9,85.5,81.3,152.7,80.8c12.7-0.1,25.3-3.1,37.9-2c28,2.4,43.2,22.7,52.3,40.5
				c24.5,47.9,38,105.9-10.3,144.8c-19.3,15.6-46.5,26-75.2,32.6c-59.4,13.7-124,11.6-186.7,9.2c-68.5-2.7-137.2-5.7-204.3-15
				c-35.6-4.9-72.2-12.1-98.9-28.6c-24.4-15-37.9-36.3-48.4-57.3c-50.2-100.7-45.1-213.2,14.2-311.6"/>
		</g>
		<g class="st28">
			
				<linearGradient id="SVGID_20_" gradientUnits="userSpaceOnUse" x1="-63.07" y1="121.6306" x2="810.0729" y2="121.6306" gradientTransform="matrix(1 0 0 -1 0 599.89)">
				<stop  offset="0" style="stop-color:#FFFFFF;stop-opacity:0"/>
				<stop  offset="1" style="stop-color:#FFFFFF"/>
			</linearGradient>
			<path class="st29" d="M810,602.1c1.8-81.6-31.1-194.6-81.8-229c-50.7-34.5-115.2-20.4-156.8,34.2c-15.5,20.3-29.9,47.1-50.6,50.6
				c-29,4.8-52.4-38.9-81.6-41.4c-38.9-3.3-64.2,65.3-102.7,74.6c-28.5,6.9-56.1-20.7-84.9-19.7c-21.1,0.8-41.1,16.9-62.2,16
				c-39.8-1.9-66.4-60.7-103-83.4c-36.3-22.6-80.6-5.5-109.8,33.3c-29.2,38.8-35,107.7-39.6,164.8H810z"/>
		</g>
		<path class="st22" d="M-84,621.3c-1.8-57.9,32.3-130.5,83.6-154.9C51,442,116.2,451.9,158.3,490.7c15.7,14.5,30.3,33.4,51.3,35.9
			c29.4,3.4,53.1-27.6,82.6-29.3c39.4-2.3,65,46.4,103.9,52.9c28.8,4.9,56.7-14.7,85.9-14c21.4,0.6,41.6,12,63,11.3
			c40.3-1.3,67.2-43,104.3-59.2c36.8-16,81.6-3.9,111.1,23.6c29.5,27.5,45.1,68.2,49.7,108.8L-84,621.3z"/>
	</g>
</g>
</svg>
